<?xml version="1.0" encoding="UTF-8"?>
<svg id="Layer_1" data-name="Layer 1" xmlns="http://www.w3.org/2000/svg" xmlns:xlink="http://www.w3.org/1999/xlink" viewBox="0 0 150 59.5">
  <defs>
    <linearGradient id="linear-gradient" x1="146.4" y1="31.69" x2="150" y2="31.69" gradientTransform="translate(0 47.89) scale(1 -1)" gradientUnits="userSpaceOnUse">
      <stop offset="0" stop-color="#35c1d0"/>
      <stop offset="1" stop-color="#755ea9"/>
    </linearGradient>
  </defs>
  <path d="M58.56,16.11v27.38c-.61,8.56-7.35,15.4-15.77,16.02H15.84c-8.86-.67-15.84-8.19-15.84-17.36v-24.7C0,7.82,7.69,0,17.16,0h24.31c9.03,0,16.43,7.1,17.09,16.1h0Z" stroke-width="0"/>
  <path d="M26.51,46.9l-3.2-1.81c-1.72.97-1.04,3.63.92,3.63h1.35c.32,0,.64-.08.92-.24.6-.34.6-1.22,0-1.57h0Z" fill="#fff" stroke-width="0"/>
  <path d="M23.65,18.68c.88.96,2.37.96,3.25,0,.81-.87.81-2.24,0-3.11l-3.75-4.05c-.42-.45-1.01-.71-1.63-.71-1.96,0-2.97,2.37-1.63,3.82l3.75,4.05Z" fill="#fff" stroke-width="0"/>
  <path d="M34.89,24.19c-.88-.96-2.38-.96-3.26,0-.81.87-.81,2.24,0,3.11l7.93,8.56-5.42,3.07c-1.53.86-1.53,3.1,0,3.97.68.39,1.5.39,2.18,0l10.42-5.91-11.86-12.81h0Z" fill="#fff" stroke-width="0"/>
  <path d="M34.14,44.46l-.27-.16-4.59-2.6-10.3-5.83,10.3-11.11,3.06-3.31,6.3-6.8c1.35-1.45.33-3.82-1.63-3.82-.62,0-1.21.26-1.63.71l-6.11,6.6-3.07,3.31-14.4,15.56,12.89,7.31,4.59,2.6,2.68,1.53c.33.19.71.29,1.09.29,2.3,0,3.1-3.11,1.09-4.25h0Z" fill="#fff" stroke-width="0"/>
  <path d="M149.13,14.61c.27.16.49.38.64.65.16.28.23.59.23.92s-.08.65-.24.93c-.16.29-.38.5-.65.66-.27.16-.58.24-.92.24s-.64-.08-.91-.24c-.27-.16-.49-.39-.64-.66-.16-.28-.24-.59-.24-.92s.08-.65.24-.92c.16-.28.37-.5.65-.66.28-.16.58-.24.92-.24s.64.08.92.23h0ZM149.02,17.62c.25-.15.44-.34.58-.6.14-.25.21-.53.21-.83s-.07-.58-.21-.83c-.14-.24-.33-.44-.58-.59-.24-.14-.52-.22-.82-.22s-.58.08-.83.22c-.25.14-.44.34-.58.6-.14.25-.21.53-.21.83s.07.58.21.83c.14.25.33.44.58.6.25.14.52.22.82.22s.57-.08.82-.22h0ZM148.99,16.26c-.08.11-.19.19-.34.24l.48.75h-.27l-.45-.7h-.64v.7h-.26v-2.1h.79c.25,0,.45.06.59.18.15.13.22.29.22.51,0,.16-.04.29-.12.4h0ZM148.7,16.21c.1-.08.15-.2.15-.35s-.05-.26-.15-.34c-.1-.08-.24-.12-.42-.12h-.52v.94h.52c.18,0,.32-.04.42-.13Z" fill="url(#linear-gradient)" stroke-width="0"/>
  <path d="M83.05,43.11c-.02.97-.78,1.6-1.53,1.72-.38.08-.77.13-1.16.13-2.64,0-5.03-1.95-5.67-4.65-.12-.5-.15-1.04-.17-1.56,0-.19-.02-.39-.03-.57-.05-.64-.1-1.32-.14-2.08-.07-1.32-.11-2.68-.12-4.19-.02-2.65.02-5.33.07-7.94,0-.61.02-1.22.03-1.83.03-2.02.02-4.08,0-6.06,0-.64,0-1.28-.02-1.9v-.23c.07-1.07.93-1.9,1.98-1.9.35,0,.68.09.97.26h.32v.23c.44.38.69.93.69,1.53v.29c.02,7.55.02,15.05,0,22.3-.05,1.88.18,2.95.79,3.58.48.5,1.23.75,2.3.75h.28c1.26.3,1.4,1.23,1.38,2.11h.02ZM103.37,21.63c-.72,0-1.27.35-1.52.96-1.37,2.98-2.72,6.02-4.02,8.97-1.02,2.32-2.08,4.71-3.15,7.05-1.06-2.02-2.01-4.14-2.94-6.21-.75-1.66-1.52-3.38-2.34-5.03-.26-.55-.51-1.1-.76-1.64-.47-1.02-.96-2.08-1.45-3.11-.31-.65-.88-1.02-1.57-1.02-.08,0-.17,0-.24.02-.73.08-1.35.53-1.65,1.22-.28.65-.21,1.38.19,1.95.48,1.03.97,2.06,1.46,3.07.31.65.63,1.3.94,1.95.53,1.12,1.06,2.23,1.58,3.35.54,1.14,1.07,2.27,1.61,3.41.45.96.92,1.92,1.38,2.88.57,1.18,1.13,2.36,1.69,3.54.02.04.02.14.02.17-.72,1.67-1.47,3.36-2.2,4.98-.57,1.28-1.16,2.62-1.73,3.92-.25.54-.21,1.1.12,1.59.4.6.98.93,1.59.93s1.24-.36,1.65-.99c.79-1.21,1.35-2.58,1.87-3.91.37-.92.75-1.88,1.21-2.75l.02-.03c1.33-3.04,2.73-6.11,4.1-9.08,2.1-4.59,4.26-9.33,6.21-14.05v-.03l.02-.03c.12-.41.02-.84-.25-1.21-.4-.53-1.14-.89-1.85-.89h0ZM144.9,22.76c-.98-.91-2.3-1.39-3.82-1.39-2.32,0-4.88,1.12-6.52,2.78-.02-.75-.14-1.51-.61-2-.32-.34-.75-.5-1.29-.5h-.12c-1.24,0-1.96.71-1.96,1.95-.03,6.37-.02,12.8,0,19.39.02,1.36,1.02,1.98,1.95,1.98.59,0,1.13-.23,1.51-.64.35-.39.53-.91.5-1.48.03-1.73.02-3.49,0-5.18-.02-2.55-.04-5.19.1-7.78.37-3.4,3.74-4.6,6.77-4.6.57,0,1.15.04,1.7.13h.03c.07,0,.12,0,.18,0,.76,0,1.32-.37,1.68-1.09l.05-.09v-1.33l-.14-.13v-.02ZM124.36,41.19c-1.84,0-3.68,0-5.52,0h-5.75c1.77-2.45,3.66-4.87,5.49-7.22,1.25-1.6,2.54-3.25,3.78-4.9,1.04-1.36,2.08-2.72,3.11-4.08.54-.71.65-1.59.31-2.39-.27-.65-.88-.98-1.82-.98h-7.55c-2.79,0-5.07,0-7.15.02-1.03,0-1.68.27-1.97,1.59-.1.47.02,1.01.31,1.45.26.38.6.63.97.7h.05c1.4.08,2.95.13,4.85.13.98,0,1.99,0,2.96-.02.97,0,1.97-.02,2.95-.02h1.04c-1.42,1.9-2.9,3.77-4.33,5.59-1.35,1.71-2.73,3.48-4.07,5.25-.4.52-.81,1.05-1.22,1.57-.93,1.2-1.89,2.43-2.82,3.67-.61.81-.72,1.66-.31,2.47.47.94,1.38.94,1.99.94h14.7c1.05,0,1.78-.8,1.78-1.9s-.68-1.86-1.77-1.86h-.02Z" stroke-width="0"/>
</svg>